<?xml version="1.0" encoding="UTF-8" standalone="no"?>
<!-- Created with Inkscape (http://www.inkscape.org/) -->

<svg
   xmlns:dc="http://purl.org/dc/elements/1.1/"
   xmlns:cc="http://creativecommons.org/ns#"
   xmlns:rdf="http://www.w3.org/1999/02/22-rdf-syntax-ns#"
   xmlns:svg="http://www.w3.org/2000/svg"
   xmlns="http://www.w3.org/2000/svg"
   xmlns:sodipodi="http://sodipodi.sourceforge.net/DTD/sodipodi-0.dtd"
   xmlns:inkscape="http://www.inkscape.org/namespaces/inkscape"
   width="117.62579mm"
   height="138.7048mm"
   viewBox="0 0 117.62579 138.7048"
   version="1.1"
   id="svg8"
   inkscape:version="0.92.1 r15371"
   sodipodi:docname="sigmafire.svg">
  <defs
     id="defs2">
    <filter
       inkscape:collect="always"
       style="color-interpolation-filters:sRGB"
       id="filter4620"
       x="-0.17330077"
       width="1.3466015"
       y="-0.14184"
       height="1.28368">
      <feGaussianBlur
         inkscape:collect="always"
         stdDeviation="22.327804"
         id="feGaussianBlur4622" />
    </filter>
  </defs>
  <sodipodi:namedview
     id="base"
     pagecolor="#ffffff"
     bordercolor="#666666"
     borderopacity="1.0"
     inkscape:pageopacity="0.0"
     inkscape:pageshadow="2"
     inkscape:zoom="0.49497475"
     inkscape:cx="183.23842"
     inkscape:cy="164.77771"
     inkscape:document-units="mm"
     inkscape:current-layer="layer1"
     showgrid="false"
     inkscape:window-width="1366"
     inkscape:window-height="705"
     inkscape:window-x="-8"
     inkscape:window-y="-8"
     inkscape:window-maximized="1"
     inkscape:snap-object-midpoints="true"
     fit-margin-top="0"
     fit-margin-left="0"
     fit-margin-right="0"
     fit-margin-bottom="0"
     showguides="false">
    <sodipodi:guide
       position="153.29262,-103.16603"
       orientation="0,793.70079"
       id="guide29"
       inkscape:locked="false" />
    <sodipodi:guide
       position="121.22029,165.17256"
       orientation="-1122.5197,0"
       id="guide31"
       inkscape:locked="false" />
    <sodipodi:guide
       position="189.10674,6.9490125"
       orientation="0,-793.70079"
       id="guide33"
       inkscape:locked="false" />
    <sodipodi:guide
       position="-4.9309219,7.4835525"
       orientation="1122.5197,0"
       id="guide35"
       inkscape:locked="false" />
  </sodipodi:namedview>
  <metadata
     id="metadata5">
    <rdf:RDF>
      <cc:Work
         rdf:about="">
        <dc:format>image/svg+xml</dc:format>
        <dc:type
           rdf:resource="http://purl.org/dc/dcmitype/StillImage" />
        <dc:title></dc:title>
      </cc:Work>
    </rdf:RDF>
  </metadata>
  <g
     inkscape:label="Capa 1"
     inkscape:groupmode="layer"
     id="layer1"
     transform="translate(-8.6726956,6.342832)">
    <text
       xml:space="preserve"
       style="font-style:normal;font-variant:normal;font-weight:normal;font-stretch:normal;font-size:50.79999924px;line-height:1.25;font-family:Symbol;-inkscape-font-specification:Symbol;letter-spacing:0px;word-spacing:0px;fill:#000000;fill-opacity:1;stroke:none;stroke-width:0.26458332"
       x="62.541069"
       y="87.460686"
       id="text45"><tspan
         sodipodi:role="line"
         id="tspan43"
         x="62.541069"
         y="132.55182"
         style="font-size:50.79999924px;stroke-width:0.26458332" /></text>
    <text
       xml:space="preserve"
       style="font-style:normal;font-variant:normal;font-weight:normal;font-stretch:normal;font-size:22.93055534px;line-height:1.25;font-family:Symbol;-inkscape-font-specification:Symbol;letter-spacing:0px;word-spacing:0px;fill:#000000;fill-opacity:1;stroke:none;stroke-width:0.26458332"
       x="34.210495"
       y="145.72543"
       id="text53"><tspan
         sodipodi:role="line"
         id="tspan51"
         x="34.210495"
         y="166.07907"
         style="stroke-width:0.26458332" /></text>
    <g
       id="g4676"
       style="fill:#ff0000"
       transform="matrix(0.75658605,0,0,0.81989661,2.1110551,-1.1423655)">
      <g
         id="g3759"
         style="fill:#ff0000">
        <rect
           id="rect10"
           width="70.559151"
           height="70.02462"
           x="52.449417"
           y="60.1992"
           style="opacity:0;fill:#ff0000;stroke-width:0.26458332" />
        <rect
           style="opacity:0;fill:#ff0000;stroke-width:0.26458332"
           id="rect12"
           width="106.37328"
           height="102.6315"
           x="34.542351"
           y="60.1992" />
        <rect
           style="opacity:0;fill:#ff0000;stroke-width:0.26458332"
           id="rect14"
           width="89.268021"
           height="88.198944"
           x="43.094982"
           y="53.784729" />
        <rect
           style="opacity:0;fill:#ff0000;stroke-width:0.26458332"
           id="rect16"
           width="97.820641"
           height="82.319016"
           x="38.818672"
           y="57.526501" />
        <rect
           style="opacity:0;fill:#ff0000;stroke-width:0.26458332"
           id="rect18"
           width="112.2532"
           height="115.46043"
           x="31.602396"
           y="30.265011" />
        <rect
           style="opacity:0;fill:#ff0000;stroke-width:0.26458332"
           id="rect20"
           width="84.991707"
           height="88.198936"
           x="45.233139"
           y="57.526501"
           ry="42.495846" />
        <g
           aria-label="S"
           transform="matrix(1.0118852,0,0,0.98825439,-4.2310445,0)"
           style="font-style:normal;font-variant:normal;font-weight:normal;font-stretch:normal;font-size:154.33602905px;line-height:1.25;font-family:Symbol;-inkscape-font-specification:Symbol;letter-spacing:0px;word-spacing:0px;fill:#ff0000;fill-opacity:1;stroke:none;stroke-width:0.80383343"
           id="text49">
          <path
             d="M 126.97706,109.59496 H 50.110484 v -2.78829 L 89.523444,59.556329 50.110484,10.120569 V 7.4076313 h 74.530436 l 2.33614,25.4714737 h -3.08973 q -1.1304,-10.399596 -5.80268,-14.8458 -4.59692,-4.446204 -13.33861,-4.446204 H 69.628566 L 101.80702,54.055093 65.559159,97.68818 h 39.940471 q 10.0228,0 14.99652,-3.76797 5.04908,-3.767969 8.3649,-14.167565 l 2.78829,0.602875 z"
             style="fill:#ff0000;stroke-width:0.80383343"
             id="path56"
             inkscape:connector-curvature="0" />
        </g>
        <g
           aria-label="SIGMAFIRE"
           transform="matrix(0.84716859,0,0,1.1804026,-3.3273052,0)"
           style="font-style:normal;font-variant:normal;font-weight:bold;font-stretch:normal;font-size:34.09737778px;line-height:1.25;font-family:Arial;-inkscape-font-specification:'Arial Bold';letter-spacing:0px;word-spacing:0px;fill:#ff0000;fill-opacity:1;stroke:none;stroke-width:0.39345548"
           id="text57">
          <g
             id="g68"
             style="fill:#ff0000">
            <path
               id="path37"
               style="font-style:normal;font-variant:normal;font-weight:bold;font-stretch:normal;font-family:Arial;-inkscape-font-specification:'Arial Bold';fill:#ff0000;stroke-width:0.39345548"
               d="m 14.164832,113.06191 4.794943,-0.46618 q 0.432877,2.41412 1.748157,3.54626 1.331929,1.13214 3.579559,1.13214 2.380822,0 3.579558,-0.99894 1.215385,-1.0156 1.215385,-2.36418 0,-0.86575 -0.516122,-1.46512 -0.499473,-0.61602 -1.764806,-1.06554 -0.865753,-0.29969 -3.945839,-1.06555 -3.962488,-0.98229 -5.560803,-2.41412 -2.24763,-2.01454 -2.24763,-4.91148 0,-1.86471 1.048894,-3.479669 1.065543,-1.631613 3.046788,-2.480717 1.997893,-0.849105 4.811592,-0.849105 4.595155,0 6.909381,2.014542 2.330876,2.014539 2.447419,5.377659 l -4.928136,0.21644 q -0.316333,-1.88135 -1.365227,-2.69715 -1.032245,-0.83246 -3.113384,-0.83246 -2.147735,0 -3.36312,0.8824 -0.782508,0.56607 -0.782508,1.51507 0,0.86576 0.73256,1.48177 0.932351,0.78251 4.528558,1.63162 3.596208,0.8491 5.311067,1.7648 1.731507,0.89905 2.697155,2.48072 0.982298,1.56502 0.982298,3.87924 0,2.09779 -1.165438,3.92919 -1.165437,1.8314 -3.296524,2.73046 -2.131086,0.8824 -5.311066,0.8824 -4.628452,0 -7.10917,-2.13109 -2.480717,-2.14773 -2.963541,-6.24341 z"
               inkscape:connector-curvature="0" />
            <path
               id="path39"
               style="font-style:normal;font-variant:normal;font-weight:bold;font-stretch:normal;font-family:Arial;-inkscape-font-specification:'Arial Bold';fill:#ff0000;stroke-width:0.39345548"
               d="M 38.039655,121.00353 V 96.595937 h 4.928136 v 24.407593 z"
               inkscape:connector-curvature="0" />
            <path
               id="path41"
               style="font-style:normal;font-variant:normal;font-weight:bold;font-stretch:normal;font-family:Arial;-inkscape-font-specification:'Arial Bold';fill:#ff0000;stroke-width:0.39345548"
               d="m 59.000886,112.02966 v -4.11233 h 10.622132 v 9.72308 q -1.548367,1.49842 -4.49526,2.64721 -2.930243,1.13214 -5.943732,1.13214 -3.829296,0 -6.676293,-1.59831 -2.846998,-1.61497 -4.278822,-4.59516 -1.431823,-2.99684 -1.431823,-6.5098 0,-3.81265 1.598314,-6.77619 1.598315,-2.96354 4.6784,-4.545206 2.347525,-1.215385 5.843838,-1.215385 4.545207,0 7.092521,1.914648 2.563963,1.897998 3.296524,5.261123 l -4.894839,0.9157 q -0.516122,-1.79811 -1.947946,-2.83035 -1.415174,-1.0489 -3.54626,-1.0489 -3.229927,0 -5.144575,2.04784 -1.897999,2.04785 -1.897999,6.07693 0,4.34542 1.931297,6.52645 1.931297,2.16439 5.06133,2.16439 1.548367,0 3.096734,-0.59937 1.565016,-0.61602 2.680507,-1.48177 v -3.09674 z"
               inkscape:connector-curvature="0" />
            <path
               id="path43"
               style="font-style:normal;font-variant:normal;font-weight:bold;font-stretch:normal;font-family:Arial;-inkscape-font-specification:'Arial Bold';fill:#ff0000;stroke-width:0.39345548"
               d="M 74.084978,121.00353 V 96.595937 h 7.375556 l 4.428664,16.649113 4.378716,-16.649113 h 7.392205 v 24.407593 h -4.578506 v -19.21307 l -4.844891,19.21307 h -4.744996 l -4.828242,-19.21307 v 19.21307 z"
               inkscape:connector-curvature="0" />
            <path
               id="path45"
               style="font-style:normal;font-variant:normal;font-weight:bold;font-stretch:normal;font-family:Arial;-inkscape-font-specification:'Arial Bold';fill:#ff0000;stroke-width:0.39345548"
               d="m 124.59838,121.00353 h -5.36101 l -2.13109,-5.54415 h -9.75638 l -2.01454,5.54415 h -5.22782 l 9.50664,-24.407593 h 5.21117 z m -9.07376,-9.65648 -3.36312,-9.05712 -3.29653,9.05712 z"
               inkscape:connector-curvature="0" />
            <path
               id="path47"
               style="font-style:normal;font-variant:normal;font-weight:bold;font-stretch:normal;font-family:Arial;-inkscape-font-specification:'Arial Bold';fill:#ff0000;stroke-width:0.39345548"
               d="M 127.32883,121.00353 V 96.595937 h 16.73236 v 4.128983 h -11.80422 v 5.77724 h 10.18925 v 4.12898 h -10.18925 v 10.37239 z"
               inkscape:connector-curvature="0" />
            <path
               id="path49"
               style="font-style:normal;font-variant:normal;font-weight:bold;font-stretch:normal;font-family:Arial;-inkscape-font-specification:'Arial Bold';fill:#ff0000;stroke-width:0.39345548"
               d="M 147.99037,121.00353 V 96.595937 h 4.92814 v 24.407593 z"
               inkscape:connector-curvature="0" />
            <path
               id="path51"
               style="font-style:normal;font-variant:normal;font-weight:bold;font-stretch:normal;font-family:Arial;-inkscape-font-specification:'Arial Bold';fill:#ff0000;stroke-width:0.39345548"
               d="M 157.61356,121.00353 V 96.595937 h 10.3724 q 3.91254,0 5.67734,0.665964 1.78146,0.649316 2.847,2.330876 1.06554,1.681563 1.06554,3.845943 0,2.7471 -1.61496,4.54521 -1.61496,1.78145 -4.82824,2.24763 1.59831,0.93235 2.63056,2.04784 1.04889,1.11549 2.8137,3.96249 l 2.98019,4.76164 h -5.89379 l -3.56291,-5.31106 q -1.898,-2.847 -2.59726,-3.57956 -0.69926,-0.74921 -1.48177,-1.0156 -0.78251,-0.28303 -2.48072,-0.28303 h -0.99894 v 10.18925 z m 4.92814,-14.08514 h 3.64615 q 3.54626,0 4.42866,-0.29969 0.88241,-0.29968 1.38188,-1.03224 0.49947,-0.73256 0.49947,-1.83141 0,-1.23203 -0.66596,-1.98124 -0.64932,-0.76586 -1.84805,-0.96565 -0.59937,-0.0832 -3.59621,-0.0832 h -3.84594 z"
               inkscape:connector-curvature="0" />
            <path
               id="path53"
               style="font-style:normal;font-variant:normal;font-weight:bold;font-stretch:normal;font-family:Arial;-inkscape-font-specification:'Arial Bold';fill:#ff0000;stroke-width:0.39345548"
               d="M 182.2376,121.00353 V 96.595937 h 18.09758 v 4.128983 h -13.16945 v 5.41096 h 12.25375 v 4.11233 h -12.25375 v 6.64299 h 13.63562 v 4.11233 z"
               inkscape:connector-curvature="0" />
          </g>
        </g>
      </g>
      <path
         transform="scale(0.26458333)"
         inkscape:connector-curvature="0"
         id="path4566"
         d="m 177.3961,402.57315 c 0.37969,-2.87328 30.58342,-39.8931 74.38041,-91.16588 40.55762,-47.48046 73.74114,-87.53323 73.74114,-89.00613 0,-1.47289 -33.4108,-43.6107 -74.24622,-93.63957 -43.28476,-53.029655 -74.24621,-92.668443 -74.24621,-95.054666 0,-4.071589 0.74256,-4.093081 141.42136,-4.093081 77.78174,0 141.42311,0.227284 141.42525,0.505076 0.002,0.277792 1.81868,19.142391 4.03671,41.921331 5.10849,52.46341 5.13172,50.50763 -0.59981,50.50763 -4.12946,0 -4.8859,-1.4332 -6.87,-13.01633 C 450.86505,76.992577 434.20672,58.12293 405.72533,52.086095 395.4044,49.8985 249.7562,48.648671 249.7562,50.747701 c 0,0.511953 27.25875,34.377317 60.57499,75.256369 33.31624,40.87904 60.59036,74.95599 60.60915,75.72655 0.0188,0.77055 -30.74219,37.59061 -68.35773,81.82236 l -68.39191,80.42133 85.05942,0.59664 c 57.58968,0.40396 88.95239,-0.14607 97.11392,-1.70302 25.35509,-4.83703 40.91614,-17.64548 52.86982,-43.51765 3.73807,-8.09058 6.79651,-15.67886 6.79651,-16.86286 0,-1.184 2.38649,-2.15272 5.3033,-2.15272 4.69677,0 5.18148,0.63541 4.23816,5.55584 -0.58585,3.05571 -4.51435,27.14785 -8.73002,53.53809 l -7.66488,47.98224 H 322.96688 176.75684 Z"
         style="opacity:0;fill:#ff0000;fill-opacity:1;stroke-width:2.02030516;filter:url(#filter4620)" />
      <path
         transform="scale(0.26458333)"
         inkscape:connector-curvature="0"
         id="path4632"
         d="m 177.3961,402.57315 c 0.37969,-2.87328 30.58342,-39.8931 74.38041,-91.16588 40.55762,-47.48046 73.74114,-87.53323 73.74114,-89.00613 0,-1.47289 -33.4108,-43.6107 -74.24622,-93.63957 -43.28476,-53.029655 -74.24621,-92.668443 -74.24621,-95.054666 0,-4.071589 0.74256,-4.093081 141.42136,-4.093081 77.78174,0 141.42311,0.227284 141.42525,0.505076 0.002,0.277792 1.81868,19.142391 4.03671,41.921331 5.10849,52.46341 5.13172,50.50763 -0.59981,50.50763 -4.12946,0 -4.8859,-1.4332 -6.87,-13.01633 C 450.86505,76.992577 434.20672,58.12293 405.72533,52.086095 395.4044,49.8985 249.7562,48.648671 249.7562,50.747701 c 0,0.511953 27.25875,34.377317 60.57499,75.256369 33.31624,40.87904 60.59036,74.95599 60.60915,75.72655 0.0188,0.77055 -30.74219,37.59061 -68.35773,81.82236 l -68.39191,80.42133 85.05942,0.59664 c 57.58968,0.40396 88.95239,-0.14607 97.11392,-1.70302 25.35509,-4.83703 40.91614,-17.64548 52.86982,-43.51765 3.73807,-8.09058 6.79651,-15.67886 6.79651,-16.86286 0,-1.184 2.38649,-2.15272 5.3033,-2.15272 4.69677,0 5.18148,0.63541 4.23816,5.55584 -0.58585,3.05571 -4.51435,27.14785 -8.73002,53.53809 l -7.66488,47.98224 H 322.96688 176.75684 Z"
         style="opacity:0;fill:#ff0000;fill-opacity:0.43646414;stroke-width:2.02030516" />
      <path
         transform="scale(0.26458333)"
         inkscape:connector-curvature="0"
         id="path4634"
         d="m 177.3961,402.57315 c 0.37969,-2.87328 30.58342,-39.8931 74.38041,-91.16588 40.55762,-47.48046 73.74114,-87.53323 73.74114,-89.00613 0,-1.47289 -33.4108,-43.6107 -74.24622,-93.63957 -43.28476,-53.029655 -74.24621,-92.668443 -74.24621,-95.054666 0,-4.071589 0.74256,-4.093081 141.42136,-4.093081 77.78174,0 141.42311,0.227284 141.42525,0.505076 0.002,0.277792 1.81868,19.142391 4.03671,41.921331 5.10849,52.46341 5.13172,50.50763 -0.59981,50.50763 -4.12946,0 -4.8859,-1.4332 -6.87,-13.01633 C 450.86505,76.992577 434.20672,58.12293 405.72533,52.086095 395.4044,49.8985 249.7562,48.648671 249.7562,50.747701 c 0,0.511953 27.25875,34.377317 60.57499,75.256369 33.31624,40.87904 60.59036,74.95599 60.60915,75.72655 0.0188,0.77055 -30.74219,37.59061 -68.35773,81.82236 l -68.39191,80.42133 85.05942,0.59664 c 57.58968,0.40396 88.95239,-0.14607 97.11392,-1.70302 25.35509,-4.83703 40.91614,-17.64548 52.86982,-43.51765 3.73807,-8.09058 6.79651,-15.67886 6.79651,-16.86286 0,-1.184 2.38649,-2.15272 5.3033,-2.15272 4.69677,0 5.18148,0.63541 4.23816,5.55584 -0.58585,3.05571 -4.51435,27.14785 -8.73002,53.53809 l -7.66488,47.98224 H 322.96688 176.75684 Z"
         style="opacity:0;fill:#ff0000;fill-opacity:0.43646414;stroke-width:2.02030516" />
      <path
         transform="scale(0.26458333)"
         inkscape:connector-curvature="0"
         id="path4636"
         d="m 177.3961,402.57315 c 0.37969,-2.87328 30.58342,-39.8931 74.38041,-91.16588 40.55762,-47.48046 73.74114,-87.53323 73.74114,-89.00613 0,-1.47289 -33.4108,-43.6107 -74.24622,-93.63957 -43.28476,-53.029655 -74.24621,-92.668443 -74.24621,-95.054666 0,-4.071589 0.74256,-4.093081 141.42136,-4.093081 77.78174,0 141.42311,0.227284 141.42525,0.505076 0.002,0.277792 1.81868,19.142391 4.03671,41.921331 5.10849,52.46341 5.13172,50.50763 -0.59981,50.50763 -4.12946,0 -4.8859,-1.4332 -6.87,-13.01633 C 450.86505,76.992577 434.20672,58.12293 405.72533,52.086095 395.4044,49.8985 249.7562,48.648671 249.7562,50.747701 c 0,0.511953 27.25875,34.377317 60.57499,75.256369 33.31624,40.87904 60.59036,74.95599 60.60915,75.72655 0.0188,0.77055 -30.74219,37.59061 -68.35773,81.82236 l -68.39191,80.42133 85.05942,0.59664 c 57.58968,0.40396 88.95239,-0.14607 97.11392,-1.70302 25.35509,-4.83703 40.91614,-17.64548 52.86982,-43.51765 3.73807,-8.09058 6.79651,-15.67886 6.79651,-16.86286 0,-1.184 2.38649,-2.15272 5.3033,-2.15272 4.69677,0 5.18148,0.63541 4.23816,5.55584 -0.58585,3.05571 -4.51435,27.14785 -8.73002,53.53809 l -7.66488,47.98224 H 322.96688 176.75684 Z"
         style="opacity:0;fill:#ff0000;fill-opacity:0.43646414;stroke-width:2.02030516" />
      <path
         transform="scale(0.26458333)"
         inkscape:connector-curvature="0"
         id="path4638"
         d="m 177.3961,402.57315 c 0.37969,-2.87328 30.58342,-39.8931 74.38041,-91.16588 40.55762,-47.48046 73.74114,-87.53323 73.74114,-89.00613 0,-1.47289 -33.4108,-43.6107 -74.24622,-93.63957 -43.28476,-53.029655 -74.24621,-92.668443 -74.24621,-95.054666 0,-4.071589 0.74256,-4.093081 141.42136,-4.093081 77.78174,0 141.42311,0.227284 141.42525,0.505076 0.002,0.277792 1.81868,19.142391 4.03671,41.921331 5.10849,52.46341 5.13172,50.50763 -0.59981,50.50763 -4.12946,0 -4.8859,-1.4332 -6.87,-13.01633 C 450.86505,76.992577 434.20672,58.12293 405.72533,52.086095 395.4044,49.8985 249.7562,48.648671 249.7562,50.747701 c 0,0.511953 27.25875,34.377317 60.57499,75.256369 33.31624,40.87904 60.59036,74.95599 60.60915,75.72655 0.0188,0.77055 -30.74219,37.59061 -68.35773,81.82236 l -68.39191,80.42133 85.05942,0.59664 c 57.58968,0.40396 88.95239,-0.14607 97.11392,-1.70302 25.35509,-4.83703 40.91614,-17.64548 52.86982,-43.51765 3.73807,-8.09058 6.79651,-15.67886 6.79651,-16.86286 0,-1.184 2.38649,-2.15272 5.3033,-2.15272 4.69677,0 5.18148,0.63541 4.23816,5.55584 -0.58585,3.05571 -4.51435,27.14785 -8.73002,53.53809 l -7.66488,47.98224 H 322.96688 176.75684 Z"
         style="opacity:0;fill:#ff0000;fill-opacity:0.43646414;stroke-width:2.02030516" />
      <path
         transform="scale(0.26458333)"
         inkscape:connector-curvature="0"
         id="path4640"
         d="m 177.3961,402.57315 c 0.37969,-2.87328 30.58342,-39.8931 74.38041,-91.16588 40.55762,-47.48046 73.74114,-87.53323 73.74114,-89.00613 0,-1.47289 -33.4108,-43.6107 -74.24622,-93.63957 -43.28476,-53.029655 -74.24621,-92.668443 -74.24621,-95.054666 0,-4.071589 0.74256,-4.093081 141.42136,-4.093081 77.78174,0 141.42311,0.227284 141.42525,0.505076 0.002,0.277792 1.81868,19.142391 4.03671,41.921331 5.10849,52.46341 5.13172,50.50763 -0.59981,50.50763 -4.12946,0 -4.8859,-1.4332 -6.87,-13.01633 C 450.86505,76.992577 434.20672,58.12293 405.72533,52.086095 395.4044,49.8985 249.7562,48.648671 249.7562,50.747701 c 0,0.511953 27.25875,34.377317 60.57499,75.256369 33.31624,40.87904 60.59036,74.95599 60.60915,75.72655 0.0188,0.77055 -30.74219,37.59061 -68.35773,81.82236 l -68.39191,80.42133 85.05942,0.59664 c 57.58968,0.40396 88.95239,-0.14607 97.11392,-1.70302 25.35509,-4.83703 40.91614,-17.64548 52.86982,-43.51765 3.73807,-8.09058 6.79651,-15.67886 6.79651,-16.86286 0,-1.184 2.38649,-2.15272 5.3033,-2.15272 4.69677,0 5.18148,0.63541 4.23816,5.55584 -0.58585,3.05571 -4.51435,27.14785 -8.73002,53.53809 l -7.66488,47.98224 H 322.96688 176.75684 Z"
         style="opacity:0;fill:#ff0000;fill-opacity:1;stroke-width:2.02030516" />
    </g>
  </g>
</svg>
